<?xml version="1.0" encoding="utf-8"?>
<!-- Generator: Adobe Illustrator 15.1.0, SVG Export Plug-In . SVG Version: 6.00 Build 0)  -->
<!DOCTYPE svg PUBLIC "-//W3C//DTD SVG 1.1//EN" "http://www.w3.org/Graphics/SVG/1.1/DTD/svg11.dtd">
<svg version="1.1" id="Layer_1" xmlns="http://www.w3.org/2000/svg" xmlns:xlink="http://www.w3.org/1999/xlink" x="0px" y="0px"
	 width="144px" height="144px" viewBox="0 0 144 144" enable-background="new 0 0 144 144" xml:space="preserve">
<g>
	<defs>
		<rect id="SVGID_1_" x="-35.46" y="-8.667" width="188.965" height="152.667"/>
	</defs>
	<clipPath id="SVGID_2_">
		<use xlink:href="#SVGID_1_"  overflow="visible"/>
	</clipPath>
	<path clip-path="url(#SVGID_2_)" fill="#FFFFFF" d="M72,141.5c-38.322,0-69.5-31.178-69.5-69.5C2.5,33.678,33.678,2.5,72,2.5
		c38.322,0,69.5,31.178,69.5,69.5C141.5,110.322,110.322,141.5,72,141.5"/>
	<path clip-path="url(#SVGID_2_)" d="M72,5c36.944,0,67,30.056,67,67c0,36.944-30.056,67-67,67c-36.944,0-67-30.056-67-67
		C5,35.056,35.056,5,72,5 M72,0C32.235,0,0,32.236,0,72c0,39.765,32.235,72,72,72c39.764,0,72-32.235,72-72
		C144,32.236,111.764,0,72,0"/>
	<path clip-path="url(#SVGID_2_)" fill="#FFD520" d="M134.5,71.5H72V9C106.521,9,134.5,36.98,134.5,71.5"/>
</g>
<g>
	<defs>
		<path id="SVGID_3_" d="M72,71.5V134c34.521,0,62.5-27.98,62.5-62.5H72z"/>
	</defs>
	<clipPath id="SVGID_4_">
		<use xlink:href="#SVGID_3_"  overflow="visible"/>
	</clipPath>
	<rect x="49.005" y="70.667" clip-path="url(#SVGID_4_)" fill="#FFFFFF" width="52.25" height="34.833"/>
	<rect x="101.255" y="70.667" clip-path="url(#SVGID_4_)" width="52.25" height="34.833"/>
	<rect x="49.005" y="105.5" clip-path="url(#SVGID_4_)" width="52.25" height="34.833"/>
	<rect x="101.255" y="105.5" clip-path="url(#SVGID_4_)" fill="#FFFFFF" width="52.25" height="34.833"/>
	<path clip-path="url(#SVGID_4_)" d="M101.222,105.5v30.457c0.012,0,0.021,0.004,0.033,0.004c2.486,0,4.503-2.016,4.503-4.502
		c0-0.086-0.021-0.167-0.026-0.253v-2.452h4.223c0.086,0.005,0.166,0.026,0.253,0.026c2.486,0,4.501-2.017,4.501-4.502
		c0-2.486-2.015-4.501-4.501-4.501c-0.087,0-0.167,0.021-0.253,0.024h-4.223v-9.707h27.892v4.241
		c-0.005,0.085-0.024,0.166-0.024,0.253c0,2.485,2.015,4.501,4.501,4.501c2.485,0,4.502-2.016,4.502-4.501
		c0-0.087-0.021-0.168-0.026-0.253v-4.241h3.707c0.085,0.004,0.166,0.025,0.253,0.025c2.486,0,4.501-2.015,4.501-4.501
		c0-0.041-0.011-0.079-0.012-0.119H101.222z"/>
	<path clip-path="url(#SVGID_4_)" fill="#FFFFFF" d="M51.469,105.5c-0.001,0.04-0.012,0.078-0.012,0.119
		c0,2.486,2.016,4.501,4.502,4.501c0.086,0,0.166-0.021,0.252-0.025h3.579v4.241c-0.005,0.085-0.024,0.166-0.024,0.253
		c0,2.485,2.015,4.501,4.501,4.501c2.485,0,4.502-2.016,4.502-4.501c0-0.087-0.021-0.168-0.026-0.253v-4.241h28.037v9.707h-4.291
		c-0.086-0.004-0.167-0.024-0.253-0.024c-2.486,0-4.501,2.015-4.501,4.501c0,2.485,2.015,4.502,4.501,4.502
		c0.086,0,0.167-0.021,0.253-0.026h4.291v2.453c-0.005,0.085-0.025,0.166-0.025,0.252c0,2.475,1.997,4.479,4.468,4.498V105.5H51.469
		z"/>
	<path clip-path="url(#SVGID_4_)" d="M101.222,75.299c-2.471,0.02-4.468,2.024-4.468,4.498c0,0.086,0.021,0.167,0.025,0.252v2.197
		h-4.291c-0.086-0.005-0.167-0.025-0.253-0.025c-2.486,0-4.501,2.016-4.501,4.501c0,2.486,2.015,4.502,4.501,4.502
		c0.086,0,0.167-0.021,0.253-0.025h4.291v9.944H68.742v-4.273c0.005-0.085,0.026-0.166,0.026-0.252c0-2.486-2.017-4.502-4.502-4.502
		c-2.486,0-4.501,2.016-4.501,4.502c0,0.086,0.02,0.167,0.024,0.252v4.273h-3.579c-0.085-0.005-0.166-0.025-0.252-0.025
		c-2.446,0-4.425,1.953-4.49,4.383h49.752V75.299z"/>
	<path clip-path="url(#SVGID_4_)" fill="#FFFFFF" d="M151.024,105.5c-0.064-2.43-2.044-4.383-4.489-4.383
		c-0.087,0-0.167,0.021-0.253,0.025h-3.707v-4.273c0.005-0.085,0.026-0.166,0.026-0.252c0-2.487-2.017-4.502-4.502-4.502
		c-2.486,0-4.501,2.015-4.501,4.502c0,0.086,0.02,0.167,0.024,0.252v4.273h-27.892v-9.944h4.223
		c0.086,0.004,0.167,0.024,0.253,0.024c2.486,0,4.501-2.015,4.501-4.501c0-2.485-2.015-4.502-4.501-4.502
		c-0.086,0-0.167,0.021-0.253,0.026h-4.223V80.05c0.005-0.086,0.025-0.167,0.025-0.253c0-2.486-2.016-4.502-4.502-4.502
		c-0.011,0-0.021,0.004-0.033,0.004V105.5H151.024z"/>
</g>
<g>
	<defs>
		<rect id="SVGID_5_" x="-35.46" y="-8.667" width="188.965" height="152.667"/>
	</defs>
	<clipPath id="SVGID_6_">
		<use xlink:href="#SVGID_5_"  overflow="visible"/>
	</clipPath>
	<path clip-path="url(#SVGID_6_)" fill="#EF3E33" d="M72,71.5V134c-34.52,0-62.5-27.98-62.5-62.5H72z"/>
</g>
<g>
	<defs>
		<path id="SVGID_7_" d="M9.5,71.5H72V9C37.481,9,9.5,36.98,9.5,71.5"/>
	</defs>
	<clipPath id="SVGID_8_">
		<use xlink:href="#SVGID_7_"  overflow="visible"/>
	</clipPath>
	<polygon clip-path="url(#SVGID_8_)" points="0.362,11.333 -17.531,11.333 0.362,23.263 	"/>
	<polygon clip-path="url(#SVGID_8_)" points="36.184,47.148 36.184,11.333 18.272,11.333 18.272,35.206 	"/>
	<polygon clip-path="url(#SVGID_8_)" points="0.362,23.264 0.362,47.143 18.273,59.081 18.273,35.206 	"/>
	<polygon clip-path="url(#SVGID_8_)" points="72.006,71.032 72.006,-8.667 54.094,-8.667 54.094,59.09 	"/>
	<polygon clip-path="url(#SVGID_8_)" points="18.272,59.081 18.272,82.977 36.184,82.977 36.184,71.018 	"/>
	<polygon clip-path="url(#SVGID_8_)" points="-17.549,35.206 -17.549,82.978 0.362,82.978 0.362,47.144 	"/>
	<polygon clip-path="url(#SVGID_8_)" points="36.184,70.702 54.095,82.639 54.095,58.774 36.184,46.832 	"/>
</g>
<g>
	<defs>
		<rect id="SVGID_9_" x="-35.46" y="-8.667" width="188.965" height="152.667"/>
	</defs>
	<clipPath id="SVGID_10_">
		<use xlink:href="#SVGID_9_"  overflow="visible"/>
	</clipPath>
	
		<line clip-path="url(#SVGID_10_)" fill="none" stroke="#FFFFFF" stroke-width="4" stroke-miterlimit="10" x1="72" y1="5.5" x2="72" y2="138.5"/>
	
		<line clip-path="url(#SVGID_10_)" fill="none" stroke="#FFFFFF" stroke-width="4" stroke-miterlimit="10" x1="6" y1="72.5" x2="138" y2="72.5"/>
	<path clip-path="url(#SVGID_10_)" d="M93.002,35.652c0.515,1.263,0.722,2.624,1.304,3.868c0.5,1.069,1.172,1.875,2.079,1.573
		c0.358-0.118,0.747-0.809,0.79-1.175c0.193-1.628-0.987-3.559-1.599-5.018c-0.797-1.905-1.681-3.773-2.596-5.624
		c-0.547-1.107-1.026-2.565-1.938-3.436c-0.625-0.597-1.812-0.697-2.362,0.158c-1.262,1.965,1.251,3.931,2.038,5.504
		C91.426,32.914,92.405,34.183,93.002,35.652 M86.945,39.07c0.52,0.837,0.889,1.806,1.367,2.654c0.456,0.811,0.758,1.71,1.337,2.45
		c0.417,0.533,1.961,1.668,2.477,0.808c0.971-1.615-0.445-3.025-1.41-4.212c-1.15-1.415-1.79-3.582-2.343-5.324
		c-0.377-1.185-0.801-2.332-1.453-3.293c-0.68-1.001-2.301-1.925-3.187-0.581c-0.864,1.311,0.816,3.859,1.504,4.964
		C85.777,37.404,86.415,38.214,86.945,39.07 M111.65,34.803c-0.706,0.712-1.175,1.738-1.349,2.717
		c-0.104,0.595-0.115,1.197-0.065,1.801c0.143,1.729,0.748,3.416,1.117,5.104c0.174,0.794,0.316,1.719,1.059,2.187
		c1.178,0.74,1.494-2.374,1.625-2.964c0.487-2.204,1.405-4.458,1.125-6.752c-0.104-0.854-0.146-1.885-0.814-2.519
		C113.606,33.673,112.229,34.221,111.65,34.803 M108.105,45.613c-0.967-0.141-2.538,0.244-3.225-0.671
		c-1.621-2.162-1.479-5.882-2.164-8.4c-0.456-1.679-0.887-3.333-1.256-5.03c-0.384-1.761-0.423-5.817-2.48-6.573
		c-0.967-0.355-1.626,0.657-1.885,1.469c-0.534,1.677,0.692,3.723,1.401,5.355c0.423,0.973,0.426,1.844,0.541,2.842
		c0.113,0.969,0.48,1.935,0.771,2.846c0.269,0.845,0.534,2.057,0.396,2.969c-0.158,1.044-1.693,1.398-2.492,1.883
		c-1.247,0.76-2.421,1.686-3.399,2.772c-1.052,1.165-1.355,2.307-1.942,3.708c-0.319,0.764-1.132,1.873-1.95,1.132
		c-0.776-0.702-1.24-1.538-1.837-2.371c-0.644-0.899-1.425-1.811-2.32-2.437c-1.13-0.792-1.628-1.697-2.286-2.856
		c-0.6-1.05-1.506-1.687-2.755-1.44c-1.718,0.343-1.027,2.591-0.282,3.545c0.653,0.836,1.532,1.448,2.303,2.169
		c0.729,0.682,1.307,1.448,2.044,2.11c1.386,1.245,2.998,2.311,4.166,3.779c0.458,0.575,0.743,1.269,1.174,1.877
		c0.523,0.739,0.989,1.517,1.418,2.313c1.104,2.049,2.332,4.067,4.113,5.602c2.126,1.831,5.937,2.094,7.685-0.325
		c0.537-0.741,0.733-1.94,0.419-2.765c-0.17-0.445-0.417-1.038-0.684-1.431c-0.997-1.471-2.966-1.906-3.926-3.487
		c-0.672-1.108-1.083-2.809-0.313-3.964c0.91-1.365,3.2-1.522,4.329-0.292c1.359,1.48,0.141,3.288-0.002,4.922
		c-0.149,1.715,0.601,3.341,2.01,4.359c0.98,0.707,2.196,0.757,3.312,0.362c1.411-0.499,2.554-1.142,3.401-2.392
		c1.043-1.539,1.812-3.741,1.554-5.634c-0.214-1.568-0.914-3.179-1.923-4.398C110.908,45.819,109.691,45.845,108.105,45.613"/>
	<path clip-path="url(#SVGID_10_)" d="M45.13,96.599l-17.81-7.834v-1.567c0,0,1.567,0.157,8.252,3.499
		C42.258,94.039,45.13,96.599,45.13,96.599"/>
	<polygon clip-path="url(#SVGID_10_)" points="45.13,97.924 25.805,89.67 27.477,108.056 45.13,114.636 62.783,108.056 
		64.454,89.67 	"/>
	<path clip-path="url(#SVGID_10_)" d="M45.13,96.599l17.81-7.834v-1.567c0,0-1.566,0.157-8.252,3.499
		C48.003,94.039,45.13,96.599,45.13,96.599"/>
	<path clip-path="url(#SVGID_10_)" d="M37.024,88.437c-5.522-3.111-6.998-2.968-6.998-2.968v1.117
		c1.254,0.518,3.04,1.322,5.547,2.575c6.685,3.343,9.557,5.902,9.557,5.902S42.414,91.473,37.024,88.437"/>
	<path clip-path="url(#SVGID_10_)" d="M53.236,88.437c5.522-3.111,6.998-2.968,6.998-2.968v1.117
		c-1.254,0.518-3.041,1.322-5.546,2.575c-6.686,3.343-9.558,5.902-9.558,5.902S47.845,91.473,53.236,88.437"/>
</g>
</svg>
